<svg xmlns="http://www.w3.org/2000/svg" xmlns:xlink="http://www.w3.org/1999/xlink" width="435px" height="290px" viewBox="0 0 435 290"><title>hi-arrive-img-connector1</title><g id="Base-Pages" stroke="none" stroke-width="1" fill="none" fill-rule="evenodd"><g id="Home1" transform="translate(-583.000000, -5426.000000)" fill="#AFADB7" fill-rule="nonzero"><path id="hi-arrive-img-connector1" d="M722.601519,5456.74282 C761.205553,5474.03512 796.591085,5494.74385 848.003237,5528.12818 C854.507777,5532.35189 895.785228,5556.16105 896.160396,5556.3822 C900.372987,5558.86548 904.268513,5561.19654 907.939359,5563.4353 C927.515632,5575.37435 940.611723,5584.64128 946.998206,5591.63836 C962.684047,5608.82389 971.788424,5623.80649 981.092098,5645.19627 C982.199582,5647.74245 983.247841,5650.21587 984.847847,5654.03725 C995.757667,5680.09381 1001.10922,5690.9229 1012.61142,5707.17677 L1012.99286,5707.71461 L1016.567,5712.569 L1015.68044,5705.3534 L1016.67297,5705.23141 L1017.79273,5714.34163 L1017.90117,5715.22388 L1017.09089,5714.85841 L1008.72382,5711.08453 L1009.13497,5710.17296 L1015.761,5713.161 L1012.18268,5708.30073 C1000.35654,5691.66167 994.981995,5680.83049 983.925436,5654.42347 C982.472372,5650.95303 981.475192,5648.59632 980.475522,5646.28743 L980.175088,5645.59513 C970.912241,5624.29922 961.86364,5609.4084 946.259607,5592.3125 C939.959292,5585.40983 926.912815,5576.17801 907.418679,5564.28905 C903.752387,5562.05307 899.861085,5559.72454 895.652573,5557.24367 C895.303244,5557.03774 853.989093,5533.20741 847.458634,5528.96688 C796.086862,5495.60876 760.737498,5474.9212 722.192718,5457.65545 C671.183251,5434.80627 625.657732,5424.26058 585.276322,5428.35792 L584.054217,5428.48656 L583.945783,5427.49246 C624.835286,5423.03231 670.92903,5433.59665 722.601519,5456.74282 Z"></path></g></g></svg>