<svg xmlns="http://www.w3.org/2000/svg" xmlns:xlink="http://www.w3.org/1999/xlink" width="313px" height="207px" viewBox="0 0 313 207"><title>hi-arrive-img-connector2</title><g id="Base-Pages" stroke="none" stroke-width="1" fill="none" fill-rule="evenodd"><g id="Home1" transform="translate(-446.000000, -5864.000000)" fill="#AFADB7" fill-rule="nonzero"><path id="hi-arrive-img-connector2" d="M757.726232,5864.58161 L758.273768,5865.41839 C677.761396,5918.10057 616.400981,5953.49034 568.033107,5976.74932 C550.585365,5985.13954 535.959573,5991.43402 521.117618,5997.19697 L521.062375,5997.21806 C519.776607,5997.70647 498.577427,6005.68551 494.302608,6007.55892 C485.878486,6011.25072 480.851197,6014.81431 475.846826,6020.90008 C470.204038,6027.76223 465.294377,6036.41736 452.247137,6061.81504 L451.849266,6062.5898 L449.088,6067.973 L455.150683,6063.96288 L455.702504,6064.79684 L448.047749,6069.86189 L447.306449,6070.3524 L447.272209,6069.46417 L446.918643,6060.2922 L447.917901,6060.25368 L448.198,6067.518 L450.959548,6062.13329 C464.344882,6036.05926 469.309618,6027.27549 475.074432,6020.26494 C480.186247,6014.0485 485.341393,6010.39429 493.901218,6006.64301 C498.297604,6004.71633 520.370888,5996.41417 520.755658,5996.26477 C535.574243,5990.5109 550.176315,5984.22663 567.599734,5975.84811 C615.925029,5952.6096 677.248288,5917.24126 757.726232,5864.58161 Z"></path></g></g></svg>