<svg xmlns="http://www.w3.org/2000/svg" xmlns:xlink="http://www.w3.org/1999/xlink" width="64px" height="789px" viewBox="0 0 64 789"><title>hi-connector-3</title><g id="Base-Pages" stroke="none" stroke-width="1" fill="none" fill-rule="evenodd"><g id="Home1" transform="translate(-761.000000, -4072.000000)" fill="#70668D" fill-rule="nonzero"><path id="hi-connector-3" d="M765.544763,4072.94065 L766.839333,4073.05935 C758.707924,4161.7477 762.151697,4264.52173 778.304576,4335.89282 C782.081699,4352.58195 785.777253,4367.39522 792.61996,4393.82969 C798.155993,4415.21627 798.140958,4415.15801 800.079645,4422.80587 C815.009185,4481.70094 822.182301,4521.15032 824.010062,4564.74197 C826.212824,4617.27727 823.107438,4666.67183 814.490923,4744.25643 C813.636055,4751.95381 812.989763,4757.66263 811.337187,4772.17503 C806.976963,4810.46513 805.043623,4828.37074 803.078235,4850.05744 L803.018666,4850.71579 L802.45,4857.191 L806.998961,4850.67548 L808.064932,4851.4196 L802.122475,4859.9324 L801.47542,4860.85933 L800.999817,4859.83382 L796.631951,4850.41562 L797.811295,4849.86868 L801.155,4857.078 L801.723794,4850.60045 C803.711288,4828.60011 805.640139,4810.71474 810.045534,4772.02795 C811.69797,4757.51678 812.344179,4751.80869 813.198867,4744.11293 C821.808639,4666.58905 824.910537,4617.24997 822.711204,4564.79643 C820.887986,4521.31316 813.72889,4481.94088 798.819502,4423.12531 C796.88162,4415.48062 796.896651,4415.53886 791.36144,4394.15546 C784.51558,4367.70881 780.81752,4352.88549 777.036643,4336.17978 C760.850037,4264.65966 757.401864,4161.75433 765.544763,4072.94065 Z"></path></g></g></svg>