<svg xmlns="http://www.w3.org/2000/svg" xmlns:xlink="http://www.w3.org/1999/xlink" id="Layer_1" x="0px" y="0px" viewBox="0 0 604 207" style="enable-background:new 0 0 604 207;" xml:space="preserve"> <style type="text/css"> .st0{fill:#70668D;} </style> <g id="Base-Pages"> <g id="Home1" transform="translate(-412.000000, -6610.000000)"> <path id="hi-connector-4" class="st0" d="M1016.7,6611.1l-0.1,0.5c-1.2,5.3-4.4,9.7-9.4,13.8c-3.9,3.2-7.7,5.5-16.2,10 c-26.4,14.1-70.9,32.3-98.1,40c-24.1,6.9-52,12.1-85.8,16.4c-25.6,3.3-47.1,5.4-95.4,9.5c-2.2,0.2-3.2,0.3-4.4,0.4 c-45.6,3.9-68.6,6.2-94.3,9.5c-33.4,4.3-61.2,9.6-85.3,16.4c-57,16.1-93.1,41.3-108.4,79.7l-2.2,6.1l6-5.2l0.8,1l-7.9,6.8 l-0.9,0.7l-0.2-1.1l-1.9-10.2l1.3-0.2l1.4,7.8l2.2-6.1l0.5-1.2c15.8-38.2,52-63.2,108.8-79.3c24.2-6.9,52.1-12.1,85.5-16.5 c25.6-3.3,48.7-5.6,94.3-9.5c1.2-0.1,2.2-0.2,4.4-0.4c48.2-4.2,69.7-6.2,95.3-9.5c33.7-4.3,61.5-9.5,85.6-16.4 c27.1-7.7,71.5-25.8,97.8-39.9c8.4-4.5,12.2-6.7,16-9.9c4.9-4,7.9-8.4,9-13.5L1016.7,6611.1z"></path> </g> </g> </svg>