<svg xmlns="http://www.w3.org/2000/svg" xmlns:xlink="http://www.w3.org/1999/xlink" id="Layer_1" x="0px" y="0px" viewBox="0 0 581 391" style="enable-background:new 0 0 581 391;" xml:space="preserve"> <style type="text/css"> .st0{fill:#70668D;} </style> <g id="Base-Pages"> <g id="Home1" transform="translate(-611.000000, -2772.000000)"> <path id="hi-connector-2" class="st0" d="M1192.3,2773.1l-0.1,0.8c-1.2,9.9-4.1,18.2-8.9,25.9c-3.7,6-7.4,10.4-15.5,19 c-25.3,26.9-68,61.4-94,76.1c-23.1,13.1-49.9,23-82.3,31.3c-24.6,6.3-45.2,10.2-91.4,18.1c-2.6,0.4-3.1,0.5-4.2,0.7 c-44.4,7.6-66.7,11.9-91.5,18.4c-32.4,8.4-59.3,18.7-82.6,32.1c-55,31.7-89.4,81.3-103.2,157.4l-1.1,6.4l5.1-6.1l1,0.8l-6.6,8 l-0.7,0.9l-0.4-1.1l-3.6-9.7l1.2-0.5l2.8,7.5l1.1-6.4l0.4-2.3c14.1-75.2,48.5-124.5,103.4-156c23.4-13.5,50.4-23.7,82.9-32.2 c24.9-6.5,47.2-10.8,91.6-18.4c1.1-0.2,1.6-0.3,4.2-0.7c46.2-7.9,66.8-11.8,91.3-18.1c32.3-8.2,58.9-18.1,81.9-31.1 c26-14.7,68.5-49.1,93.7-75.9c8-8.5,11.7-12.8,15.3-18.8c4.8-7.7,7.7-16.1,8.8-26.2L1192.3,2773.1z"></path> </g> </g> </svg>