<svg xmlns="http://www.w3.org/2000/svg" xmlns:xlink="http://www.w3.org/1999/xlink" width="19px" height="122px" viewBox="0 0 19 122"><title>hi-HEAL-text</title><g id="Base-Pages" stroke="none" stroke-width="1" fill="none" fill-rule="evenodd"><g id="Home1" transform="translate(-1391.000000, -5263.000000)" fill="#100040" fill-rule="nonzero"><g id="hi-heal-arrive" transform="translate(1365.000000, 5031.000000)"><g id="Group-15" transform="translate(0.000000, 0.000000)"><path d="M-23.6859514,301.695999 L-23.6859514,293.227199 L-13.5950495,293.227199 L-13.5950495,301.695999 L-12.2810008,301.695999 L-12.2810008,284 L-13.5950495,284 L-13.5950495,291.963199 L-23.6859514,291.963199 L-23.6859514,284 L-25,284 L-25,301.695999 L-23.6859514,301.695999 Z M24.2169968,301.695999 L24.2169968,300.431999 L15.5720842,300.431999 L15.5720842,293.404159 L23.4760043,293.404159 L23.4760043,292.140159 L15.5720842,292.140159 L15.5720842,285.264 L24.093498,285.264 L24.093498,284 L14.2629974,284 L14.2629974,301.695999 L24.2169968,301.695999 Z M48.8388817,301.695999 L50.5338866,297.196159 L59.283103,297.196159 L60.9781079,301.695999 L62.3739943,301.695999 L55.6189012,284 L54.2230149,284 L47.4429953,301.695999 L48.8388817,301.695999 Z M59.0559945,296.165999 L51.313995,296.165999 L55.1849948,285.659 L59.0559945,296.165999 Z M96.6599921,301.695999 L96.6599921,300.431999 L88.0834391,300.431999 L88.0834391,284 L86.7059927,284 L86.7059927,301.695999 L96.6599921,301.695999 Z" id="hi-HEAL-text" transform="translate(35.829996, 292.847999) rotate(-270.000000) translate(-35.829996, -292.847999) "></path></g></g></g></g></svg>