<svg xmlns="http://www.w3.org/2000/svg" xmlns:xlink="http://www.w3.org/1999/xlink" width="46px" height="37px" viewBox="0 0 46 37"><title>hico-listen-to-shift</title><defs><polygon id="path-1" points="0 0 46 0 46 37 0 37"></polygon></defs><g id="Base-Pages" stroke="none" stroke-width="1" fill="none" fill-rule="evenodd"><g id="Home1" transform="translate(-857.000000, -3478.000000)"><g id="Group-5" transform="translate(-1.000000, 3231.000000)"><g id="hico-listen-to-shift" transform="translate(858.000000, 247.000000)"><mask id="mask-2" fill="white"><use xlink:href="#path-1"></use></mask><g id="Clip-2"></g><path d="M16.4045123,16.3622596 C16.423058,16.3616287 16.4412894,16.3606824 16.4598351,16.359736 C16.4598351,15.9427228 16.4777521,15.5247632 16.4548058,15.1086962 C16.429659,14.6569844 16.3645919,14.2071653 16.3199565,13.7560844 C16.2652624,13.2069012 16.2269136,12.6558255 16.1574458,12.1088504 C16.0763476,11.4662967 15.9729318,10.8259511 15.8726592,10.1862363 C15.8201654,9.85092233 15.752898,9.5184473 15.6922315,9.18439507 C15.6356514,9.43706347 15.6167914,9.68405393 15.6394234,9.9272591 C15.6988325,10.560665 15.780245,11.1924937 15.8465695,11.8255842 C15.903464,12.373821 15.942127,12.9242659 16.0062512,13.471241 C16.0930073,14.2122123 16.1948516,14.9506602 16.2938668,15.6897389 C16.3240428,15.9149639 16.3671066,16.1382963 16.4045123,16.3622596 L16.4045123,16.3622596 Z M3.76419979,9.19448919 L3.71076301,9.22981861 C3.7217647,9.29795391 3.72050737,9.3714517 3.74596842,9.43390906 C4.24387345,10.6575055 4.71317409,11.894035 5.25225687,13.0987049 C6.21506187,15.2515911 7.31020147,17.3398118 8.49366893,19.377562 C9.59635255,21.2758871 10.7502726,23.1445608 11.8881616,25.0223822 C12.1462298,25.4482279 12.4310164,25.8576705 12.7038583,26.2743684 C12.7412641,26.1472455 12.7220897,26.0447272 12.6837409,25.9504102 C12.246188,24.8744403 11.8186938,23.7943696 11.3622809,22.7266012 C10.6804905,21.1298378 10.0062441,19.5292892 9.27447455,17.9555531 C8.69515701,16.7098758 8.07246139,15.4806014 7.40010099,14.2828712 C6.4696724,12.6245968 5.40187985,11.0536996 4.16591862,9.60393187 C4.04207103,9.45882892 3.89873474,9.33075979 3.76419979,9.19448919 L3.76419979,9.19448919 Z M19.3982292,29.8669282 C19.4262049,29.886801 19.454495,29.9066738 19.4824707,29.926862 C19.7559413,29.5688362 20.0473289,29.2231127 20.3006821,28.8515229 C21.7661071,26.697375 22.991381,24.40948 24.0466002,22.0278989 C24.5771959,20.8307996 25.1244514,19.6409554 25.6409021,18.4378626 C26.3208065,16.8534015 27.0013396,15.2683095 27.6375516,13.6661836 C28.2140401,12.2138923 28.7062872,10.7300569 29.0225071,9.19417375 C29.0753153,8.93866638 29.1036053,8.67811195 29.1441544,8.41377222 C29.0768869,8.41377222 29.0583412,8.40809428 29.0533119,8.41440311 C28.9351223,8.55414356 28.8103317,8.68915239 28.7031438,8.83709431 C27.9242242,9.91211792 27.2540641,11.0546459 26.6609159,12.2407049 C25.5305709,14.5017874 24.5646226,16.8366831 23.62665,19.1829348 C23.0218714,20.6954753 22.4249511,22.2114857 21.8217442,23.7246571 C21.050683,25.659258 20.2764783,27.5929126 19.5054171,29.527198 C19.4617247,29.637287 19.4337489,29.7533693 19.3982292,29.8669282 L19.3982292,29.8669282 Z M22.1071595,32.8674049 C22.1181612,32.8797071 22.1291629,32.8916938 22.1401645,32.903996 C22.2618118,32.8276593 22.3844021,32.7528997 22.5044776,32.6746703 C24.760767,31.2025062 26.9743069,29.6682002 29.1428971,28.0695442 C30.1443651,27.3310964 31.1219438,26.5592118 32.1023515,25.7926896 C32.7470505,25.28893 33.3779188,24.7675057 34.0147595,24.2539675 C34.6343118,23.7546241 35.2610937,23.2644284 35.8705873,22.7530982 C36.4627926,22.2565938 37.0427388,21.7446327 37.6173413,21.2279401 C38.4503264,20.4778209 39.2817397,19.7254936 40.0971221,18.9567634 C40.4557772,18.618295 40.7848849,18.2467053 41.1067629,17.872592 C41.6200703,17.2764082 42.1179753,16.6669758 42.617452,16.0591206 C42.6705744,15.9944551 42.6910061,15.9029772 42.7541873,15.761975 C42.5633865,15.8496676 42.4392246,15.8969838 42.3241784,15.9610184 C40.7389921,16.8369986 39.222645,17.8243295 37.7660213,18.8980914 C36.2914805,19.9851017 34.8392575,21.1039717 33.3992935,22.2370364 C32.2852939,23.1133321 31.1989557,24.025588 30.1119887,24.9359513 C29.2375116,25.6677749 28.3752935,26.4147397 27.5168474,27.1661206 C26.8045665,27.7897479 26.1076881,28.4307244 25.4004366,29.0597141 C25.088303,29.3373024 24.7632816,29.6003804 24.4514623,29.8779686 C24.1298987,30.1647047 23.7636996,30.4217892 23.5109751,30.7618348 C23.0089837,31.4384562 22.5714308,32.1630247 22.1071595,32.8674049 L22.1071595,32.8674049 Z M46,15.6600874 C45.7491615,16.1739412 45.5297564,16.7067213 45.2408834,17.1978633 C44.8102459,17.9300023 44.2614187,18.5779185 43.6783292,19.1949215 C43.2797537,19.6166664 42.9031816,20.0617539 42.4822884,20.4592098 C41.820301,21.0850452 41.1353673,21.6865916 40.4491762,22.2852989 C39.8117068,22.8417372 39.1651218,23.3874505 38.5128788,23.9262241 C38.0420065,24.3148476 37.5604468,24.6905381 37.0748008,25.0605506 C36.211954,25.7169838 35.3462783,26.3696316 34.4749444,27.0147088 C33.6705638,27.6096309 32.8705838,28.2121236 32.0457714,28.7773943 C30.7460004,29.6678848 29.4437147,30.5555363 28.1118816,31.3955562 C26.8014232,32.2216967 25.4661324,33.0102997 24.117954,33.7727211 C22.7348844,34.5546998 21.3285542,35.2953558 19.9212809,36.0328573 C19.3485644,36.3334727 18.7513299,36.5889801 18.1550383,36.841964 C17.9491495,36.9293412 17.7130847,36.9460596 17.4672755,37 C17.4421288,36.6791963 17.2654731,36.5347242 17.050783,36.3956147 C16.8134608,36.2416794 16.5333893,36.1662889 16.3102121,36.0148771 C15.8050774,35.672308 15.2920844,35.32343 14.9070252,34.8344962 C13.6848947,33.2815791 12.5114859,31.6911246 11.443379,30.0281186 C10.3171204,28.2748964 9.2194661,26.5024323 8.14538687,24.7160888 C7.27373873,23.266952 6.43226665,21.7979423 5.61908464,20.3147378 C4.48213861,18.2407119 3.40303004,16.1360882 2.44242538,13.9721616 C1.6767078,12.2463828 0.966627325,10.5007312 0.455205932,8.6800046 C0.296781604,8.11599573 0.118554234,7.54757069 0.0550587693,6.96968242 C-0.001521348,6.45456694 -0.0697318227,5.91610881 0.162875326,5.40130877 C0.313126971,5.06883375 0.5363041,4.88398521 0.893701841,4.82405138 C1.27656063,4.75970138 1.65721909,4.67579402 2.0328482,4.57800725 C2.38490227,4.48589842 2.69577858,4.54740945 3.02457192,4.6978749 C4.08262012,5.18270802 4.86531174,5.98424411 5.62097064,6.83972064 C6.54291222,7.88351557 7.33629119,9.01658036 8.06397437,10.1982231 C8.95794022,11.6492526 9.76200656,13.1504373 10.4538557,14.7087168 C11.0250005,15.9947706 11.6128051,17.2764082 12.1094528,18.591798 C12.8509666,20.5547885 13.5189263,22.5461688 14.2186338,24.5249315 C14.2506959,24.6154631 14.2855869,24.7047329 14.3896315,24.7917947 C14.3896315,24.6848602 14.4012618,24.5766638 14.3877455,24.4716219 C14.2934453,23.7429527 14.1975734,23.0149144 14.0951005,22.287507 C14.006144,21.657571 13.9017851,21.0301584 13.8153433,20.3999069 C13.7521622,19.9384164 13.7122417,19.4737715 13.6515753,19.0119656 C13.5893372,18.5391193 13.509182,18.0687964 13.4472582,17.5959501 C13.3856487,17.1215265 13.339756,16.6452103 13.2825472,16.1707867 C13.2193661,15.6477852 13.1508412,15.1260455 13.0848311,14.6039903 C13.052769,14.3487984 13.0137916,14.0942373 12.9908452,13.8380991 C12.9358368,13.2270895 12.8943447,12.6145027 12.8365073,12.0038085 C12.7698685,11.295643 12.6793403,10.5900011 12.6221315,9.88120468 C12.5778104,9.32949803 12.5598934,8.7749524 12.544491,8.22103765 C12.5140006,7.11005375 12.4696795,5.99843896 12.4769092,4.88713962 C12.4819385,4.15089986 12.551092,3.41371378 12.6196168,2.67968211 C12.6626806,2.21913796 12.7475507,1.76143278 12.8346213,1.30625113 C12.8685693,1.12897318 12.9515535,0.958634928 13.0279367,0.792712857 C13.1599569,0.505030484 13.3793621,0.338477531 13.7024974,0.292107675 C13.9171875,0.260878996 14.1218189,0.161199577 14.336509,0.12523928 C14.6725321,0.0694061881 15.0129558,0.0410164802 15.3518078,0.00221721273 C15.3756972,-0.000621758066 15.4068163,-0.00282984646 15.424419,0.0094723603 C15.8446835,0.301886352 16.3799943,0.409451801 16.6723249,0.910056983 C17.1340815,1.70149895 17.4625605,2.54656592 17.7470328,3.40961304 C18.2741709,5.01110801 18.6633163,6.64887872 18.961305,8.30873031 C19.1294736,9.24590611 19.3187027,10.1796121 19.465811,11.1202577 C19.5717416,11.7968791 19.6298933,12.4813865 19.6977895,13.1636858 C19.7559413,13.7491447 19.80372,14.3358653 19.8455265,14.9229014 C19.8964486,15.6351676 19.9659164,16.3483801 19.9731461,17.0615927 C19.9825761,17.9880435 19.9413983,18.9154406 19.9149943,19.8418914 C19.9109079,19.9800547 19.8687872,20.1166407 19.8442691,20.2544885 C19.8694158,20.2611128 19.8945626,20.2680525 19.9197093,20.2746767 C20.1501161,19.7258091 20.3780082,19.1759951 20.611244,18.6283891 C21.4137387,16.7470978 22.2077464,14.8620212 23.0247004,12.9873542 C23.7555269,11.309207 24.5655656,9.67017452 25.5007092,8.09549205 C26.0916571,7.10059051 26.709952,6.12398456 27.50616,5.27639406 C27.9317682,4.8234205 28.3998115,4.47391165 29.0498542,4.35372855 C29.5263845,4.26540502 29.9944278,4.12124839 30.4832172,4.08465721 C30.6749609,4.07046236 30.8421866,4.11872486 31.0040686,4.22439766 C31.1244585,4.3035734 31.2611938,4.3609837 31.3960431,4.41366238 C31.6732856,4.52217415 31.8574854,4.71680137 31.9995643,4.97640948 C32.2485168,5.43096025 32.3189276,5.93124999 32.3509897,6.42806988 C32.3909101,7.04444198 32.4025405,7.66870011 32.3497324,8.28349501 C32.2868656,9.01247962 32.1765343,9.74209511 32.02754,10.459093 C31.5299493,12.8523453 30.6887916,15.1377168 29.7750227,17.3953295 C29.0630562,19.1542296 28.3111693,20.8960959 27.5787712,22.6464791 C27.5143327,22.8004144 27.4618389,22.9597122 27.4586956,23.1679034 C27.6645843,23.01176 27.8748738,22.8606637 28.0760475,22.6982115 C28.7323769,22.1689011 29.3817909,21.6307585 30.0406349,21.1046025 C30.7092233,20.5702452 31.3749827,20.0311561 32.0611738,19.5204568 C33.6297004,18.3523781 35.1997986,17.1855611 36.7884426,16.0452412 C38.3293078,14.9389889 39.9320968,13.9292616 41.6464743,13.1100608 C42.2770283,12.8088145 42.9305286,12.5709718 43.6437524,12.5526762 C43.9838618,12.5441593 44.2626761,12.6892622 44.5132003,12.8930373 C44.8520523,13.1687329 45.1805313,13.457677 45.508696,13.7466211 C45.7614205,13.9686917 45.8692371,14.2642601 45.9145012,14.5907418 C45.9264458,14.6768572 45.9707669,14.7588719 46,14.8430947 L46,15.6600874 Z" id="Fill-1" fill="#F9C3BC" mask="url(#mask-2)"></path></g></g></g></g></svg>