<svg xmlns="http://www.w3.org/2000/svg" xmlns:xlink="http://www.w3.org/1999/xlink" width="96px" height="98px" viewBox="0 0 96 98"><title>hico-play-btn-full-n</title><g id="Base-Pages" stroke="none" stroke-width="1" fill="none" fill-rule="evenodd"><g id="Home1" transform="translate(-1341.000000, -256.000000)"><g id="hico-play-btn-full-n" transform="translate(1341.000000, 256.000000)"><g id="hico-play-container"><path d="M42.7390758,0 C53.1108225,0.0136727975 60.8276042,1.52476207 68.1281131,4.84325293 C78.4529195,9.53607352 86.245012,16.9381834 91.1433115,27.2583481 C93.6502339,32.5406852 94.9454771,38.1385016 94.9986074,44.0129454 C95.0460635,49.3543377 93.8792614,54.4258372 91.7122694,59.2802827 C88.6761078,66.0830335 84.2131669,71.7601083 78.2759906,76.2389832 C70.3827958,82.1921672 61.5502788,85.9592708 51.7949461,87.4905632 C46.7068221,88.2893632 41.619214,88.0976926 36.5450173,87.2709191 C32.8950208,86.6757043 29.3162085,85.8137048 25.8715114,84.4455914 C19.3504182,81.8538946 13.9940638,77.6993056 9.61984526,72.2232259 C5.76300187,67.3951998 3.16942042,61.9429494 1.74728357,55.9431428 C-0.183459354,47.7955898 -0.500693363,39.5573818 0.729039771,31.2787676 C2.09237227,22.0993018 6.69613411,14.8992231 14.1441696,9.47183799 C18.4544255,6.33154894 23.2057141,4.10972451 28.2783633,2.54631436 C33.7590321,0.85702327 39.3629838,-0.015336801 42.7390758,0" id="Fill-1" fill="#FFFFFF"></path><path d="M92.9523578,52.064159 C92.2771434,43.7541758 84.1139297,40.3221893 78.8661495,35.1742097 C74.2014559,30.02623 73.0352825,23.1622571 70.1198491,16.8702819 C67.7875023,12.2943 62.5397221,10.0063091 57.5426691,9.07509674 C55.7490945,8.70673019 53.9543536,8.37211151 52.120546,8.26857992 C50.8505832,8.19650821 49.5835358,8.06151674 48.3124068,8.01632892 C46.6272862,7.95569716 44.9456642,8.06895271 43.2704562,8.27258391 C28.6396449,10.0509249 14.6478966,18.5210674 7.28234549,31.4888282 C5.6170499,34.4214606 4.40481266,37.5245484 3.54126127,40.7626276 C3.03922363,42.6490761 2.61182108,44.5515406 2.42756569,46.4997649 C2.31269761,47.7158321 2.07363207,48.9273233 2.04914243,50.1439625 C2.01998809,51.5939768 1.9144494,53.0502831 2.14768408,54.5043013 C2.308616,55.5110173 2.29403884,56.5451893 2.44622446,57.5541933 C2.69112087,59.1735189 2.9179416,60.8037124 3.31444055,62.3904342 C4.46195516,66.9933 6.27710403,71.3381948 8.79895398,75.3890828 C10.3400521,77.865833 12.0852306,80.2035878 14.0968797,82.3262714 C15.9744188,84.3082436 17.9767385,86.1700963 20.1866371,87.8151618 C22.29158,89.3830076 24.5008955,90.78097 26.8326592,91.9844533 C29.6408047,93.4338956 32.6075498,94.5143993 35.6565101,95.35638 C37.087988,95.7510584 38.5503694,96.0570772 40.0156662,96.3121882 C41.2378159,96.5255434 42.4821229,96.624499 43.7194329,96.7394705 C44.9392503,96.8521541 46.1625661,96.9608336 47.3864651,96.9957255 C48.2704245,97.0203214 49.1596317,96.9333777 50.0447573,96.872746 C51.1526221,96.7966703 52.2645684,96.7320345 53.3654361,96.5970431 C54.6441452,96.4414597 55.9246036,96.2675724 57.1840708,96.0073134 C59.5974666,95.5085314 61.95372,94.8089781 64.247583,93.9097977 C66.6936317,92.9511295 69.0463865,91.805418 71.2930195,90.4612233 C72.4924288,89.7433661 73.6201185,88.9082494 74.7816272,88.1286165 C75.9378881,87.3524156 76.838174,86.2736278 78.0055135,85.5105829 C78.0801486,85.4613911 78.1378742,85.3870313 78.2025968,85.3235396 C79.8696417,83.69449 81.5267741,82.0614365 82.9914878,80.2430557 C84.6550342,78.1764278 86.1617302,76.0131324 87.4392731,73.7028335 C89.1278922,70.6483656 90.4724901,67.4531862 91.3902685,64.0892675 C91.9348715,62.0941393 92.3651895,60.0818513 92.6339925,58.0295234 C92.8631455,56.2769223 93.0538149,54.5288972 92.9861768,52.7860201 C92.9762643,52.5423491 92.9663519,52.302682 92.9523578,52.064159 L92.9523578,52.064159 Z M54.1165656,6 C54.1756907,6.04722974 54.2310534,6.13095518 54.2934035,6.13632219 C54.9615177,6.18999234 55.6333943,6.20609339 56.2982834,6.28284171 C57.2286982,6.39071872 58.163413,6.49913243 59.0814653,6.68107425 C61.1632079,7.09379774 63.2223754,7.59990729 65.2191928,8.30513311 C69.0908148,9.84439313 72.853324,11.9911993 73.3908254,16.2848116 C76.0783319,28.628947 84.1408517,35.606067 92.7408728,43.1198886 C94.3533768,45.2666947 95.4283794,47.9502024 94.8344404,50.5102688 C94.8301404,51.5777681 94.7269402,52.6613685 94.6205149,53.7422854 C94.5183897,54.777046 94.3861643,55.8101965 94.243189,56.8406634 C93.9131632,59.2177145 93.2928867,61.5244577 92.5204973,63.7920217 C90.996681,68.2665025 88.8794633,72.4372101 86.0769315,76.2526214 C84.441315,78.4793961 82.5756479,80.5022242 80.583668,82.4134183 C80.162267,82.8170179 79.779566,83.2640903 79.3339774,83.6381713 C78.8921513,84.0101054 78.3836751,84.3009977 77.922499,84.6525372 C76.0412444,86.0871404 74.0922646,87.4213804 72.0196595,88.5645547 C70.1873175,89.5757004 68.2996129,90.4703819 66.3404206,91.2137135 C64.3113531,91.9833435 62.236598,92.5951832 60.1204553,93.0588934 C59.0056776,93.3030926 57.8645623,93.4217036 56.738497,93.6165263 C54.071953,94.0780896 51.3812214,94.0056349 48.6942523,93.9798732 C47.9686255,93.9734328 47.2435362,93.8333537 46.5189845,93.7490916 C45.8159327,93.6664395 45.1134185,93.575737 44.4109043,93.4898647 C42.7537877,93.2880649 41.1316087,92.9155941 39.5266298,92.4722786 C36.7079729,91.692988 33.9909037,90.6458833 31.3834848,89.3207672 C28.990529,88.1040648 26.7389359,86.6608743 24.6007557,85.0443293 C22.5475007,83.4927251 20.647971,81.7597159 18.9118417,79.8651594 C16.7134614,77.4655669 14.8107067,74.8421697 13.1750902,72.0212664 C11.5147486,69.157427 10.1634703,66.1626324 9.13146776,63.0202449 C8.44239107,60.9212052 7.9226273,58.7776193 7.55390139,56.6034413 C7.34857589,55.392106 7.30235077,54.1544722 7.1480879,52.9334762 C6.89008726,50.8972306 7.04703765,48.8540078 7.04972516,46.8156154 C7.05133766,45.7808548 7.28568823,44.7466309 7.39802601,43.7097235 C7.60335151,41.8205341 8.02529005,39.9780377 8.51549125,38.1441286 C9.33786827,35.0650719 10.5354212,32.1395118 11.9941998,29.3121681 C13.2261528,26.9249196 14.6951439,24.6884843 16.3522605,22.5808574 C17.6788137,20.892931 19.1203923,19.2957072 20.7070961,17.8460764 C23.3263401,15.4523875 26.169722,13.3646185 29.2883047,11.648247 C32.3009996,9.98983924 35.4496823,8.68136089 38.7606904,7.75930765 C40.6489326,7.23387684 42.5506122,6.77929063 44.497442,6.51630688 C45.6992949,6.35422302 46.8941604,6.14759292 48.1121384,6.14168921 C48.2142636,6.1411525 48.3153139,6.04937654 48.4179766,6 L54.1165656,6 Z" id="Fill-1" stroke="#F9C3BC" stroke-width="0.5"></path></g><path d="M26.2,47 L26.2,44.8 L27.25,44.8 C28.63,44.8 29.7,43.73 29.7,42.4 C29.7,41.07 28.63,40 27.25,40 L24.6,40 L24.6,47 L26.2,47 Z M27.25,43.3 L26.2,43.3 L26.2,41.5 L27.25,41.5 C27.74,41.5 28.1,41.89 28.1,42.4 C28.1,42.91 27.74,43.3 27.25,43.3 Z M40.6,47 L40.6,45.46 L38.1,45.46 L38.1,40 L36.5,40 L36.5,47 L40.6,47 Z M48.65,47 L49,45.9 L51.6,45.9 L51.95,47 L53.7,47 L51.32,40 L49.28,40 L46.9,47 L48.65,47 Z M51.12,44.4 L49.48,44.4 L50.3,41.83 L51.12,44.4 Z M62.75,47 L62.75,44.31 L65.1,40 L63.28,40 L61.95,42.7 L60.62,40 L58.8,40 L61.15,44.31 L61.15,47 L62.75,47 Z" id="PLAY" fill="#100040" fill-rule="nonzero"></path></g></g></g></svg>