<svg xmlns="http://www.w3.org/2000/svg" xmlns:xlink="http://www.w3.org/1999/xlink" width="80px" height="79px" viewBox="0 0 80 79"><title>hico-learnabout-btn-container@3x</title><defs><polygon id="path-1" points="0 0.395988101 79.7836875 0.395988101 79.7836875 77 0 77"></polygon><polygon id="path-3" points="0.364220259 0.378015659 48.4335474 0.378015659 48.4335474 56 0.364220259 56"></polygon><polygon id="path-5" points="0.0971543618 0.237064744 28.5432809 0.237064744 28.5432809 47 0.0971543618 47"></polygon></defs><g id="Base-Pages" stroke="none" stroke-width="1" fill="none" fill-rule="evenodd" opacity="0.770903088"><g id="Home1" transform="translate(-1356.000000, -6538.000000)"><g id="Group-17" transform="translate(918.000000, 6352.000000)"><g id="hico-learnabout-btn-container" transform="translate(438.000000, 186.000000)"><g id="Group-3"><mask id="mask-2" fill="white"><use xlink:href="#path-1"></use></mask><g id="Clip-2"></g><path d="M79.7836875,77.0001863 C79.6311875,75.8290411 79.4749375,74.6591379 79.3261875,73.4886137 C79.1711875,72.269654 79.0418125,71.0475895 78.8649375,69.8317347 C78.7061875,68.7369685 78.4893125,67.650896 78.3161875,66.5579927 C78.1474375,65.4886863 78.0099375,64.4137911 77.8430625,63.3438637 C77.6386875,62.0367266 77.4218125,60.7314524 77.2055625,59.4261782 C77.0293125,58.3593556 76.8430625,57.294396 76.6674375,56.2275734 C76.4524375,54.9216782 76.2555625,53.6126782 76.0274375,52.3092669 C75.7618125,50.7947266 75.4680625,49.2839121 75.1918125,47.7712347 C74.9374375,46.3765411 74.7143125,44.9762589 74.4330625,43.587154 C74.0193125,41.5398234 73.6049375,39.4912508 73.1224375,37.4582024 C72.0924375,33.1238476 70.7793125,28.8727024 69.1274375,24.7302266 C67.5568125,20.7908073 65.6705625,17.0047669 63.4111875,13.4099847 C62.3818125,11.7718718 61.2568125,10.2039282 59.9955625,8.72167823 C58.0224375,6.40298468 55.5780625,4.71208952 52.9530625,3.25033145 C51.7705625,2.59210565 50.5368125,2.00404919 49.2768125,1.507275 C47.8111875,0.929154032 46.2699375,0.593210484 44.6780625,0.536702419 C43.9486875,0.511242742 43.2218125,0.419339516 42.4924375,0.400710484 C40.8580625,0.35786371 39.2499375,0.615565323 37.6318125,0.809928226 C34.9986875,1.12537984 32.4436875,1.76187177 29.9230625,2.53062984 C25.9580625,3.740275 22.2324375,5.47774274 18.7405625,7.71633145 C16.7468125,8.99490403 14.8486875,10.3933234 13.1318125,12.0165331 C10.9955625,14.0352992 9.3261875,16.4216782 7.8399375,18.9347347 C5.6361875,22.6605411 3.9886875,26.6229363 2.9093125,30.806396 C2.4243125,32.6897911 2.0393125,34.5992669 1.6511875,36.5050169 C1.3736875,37.869904 1.1461875,39.2465895 0.9330625,40.623275 C0.7924375,41.528025 0.7211875,42.4433315 0.6143125,43.3524282 C0.4736875,44.549654 0.3155625,45.7456379 0.1911875,46.9441056 C0.1461875,47.3787831 0.1961875,47.822154 0.1668125,48.2586944 C0.1518125,48.4816218 0.0580625,48.7008234 -6.25e-05,48.9212669 L-6.25e-05,57.4030653 C0.0580625,57.6526944 0.1561875,57.8992185 0.1674375,58.1513315 C0.2318125,59.506904 0.2536875,60.8662024 0.3293125,62.221154 C0.3999375,63.4997266 0.5061875,64.7758153 0.6218125,66.0506621 C0.7549375,67.516146 0.9155625,68.977904 1.0624375,70.440904 C1.2093125,71.9082508 1.3499375,73.3755976 1.5036875,74.8417024 C1.5793125,75.5632669 1.6780625,76.2811056 1.7661875,77.0001863 L4.2686875,77.0001863 C4.3055625,76.8859282 4.3680625,76.7735331 4.3761875,76.6574121 C4.4349375,75.7638395 4.4993125,74.869646 4.5330625,73.9742105 C4.5936875,72.3497589 4.6311875,70.7240653 4.6861875,69.0977508 C4.7280625,67.8371863 4.7824375,66.5772427 4.8305625,65.3172992 C4.8805625,64.0076782 4.9268125,62.6986782 4.9799375,61.3896782 C5.0243125,60.3247185 5.0599375,59.2585169 5.1299375,58.1947992 C5.2068125,57.0130976 5.3230625,55.8345008 5.4124375,54.6540411 C5.4724375,53.8573395 5.5074375,53.0600169 5.5680625,52.2639363 C5.6618125,51.0114444 5.7018125,49.7502589 5.8836875,48.5095653 C6.2211875,46.2026702 6.6474375,43.9081944 7.0324375,41.6075089 C7.4886875,38.8752508 8.1443125,36.1901863 8.9036875,33.5274766 C9.4874375,31.480146 10.1774375,29.4706944 11.1243125,27.5630815 C12.1455625,25.5051944 13.3636875,23.5615653 14.7468125,21.7210169 C17.0424375,18.6683395 19.9836875,16.3521298 23.2136875,14.366275 C26.3661875,12.4269927 29.7074375,10.8882347 33.2543125,9.8021621 C34.7843125,9.33271048 36.3474375,9.03340403 37.9336875,8.79495242 C39.6380625,8.53911371 41.3436875,8.44721048 43.0455625,8.55215403 C45.3055625,8.69311371 47.5118125,9.13958952 49.5474375,10.2126218 C51.4280625,11.2043073 53.2668125,12.2636782 54.7205625,13.8359685 C56.2399375,15.4796702 57.5349375,17.2972427 58.6868125,19.2147911 C61.2680625,23.510646 63.0261875,28.1616944 64.6261875,32.8754605 C65.9186875,36.6863395 66.9018125,40.584775 67.7136875,44.5223315 C68.4486875,48.0848234 69.1149375,51.6609766 69.8136875,55.2302992 C70.3918125,58.1842427 70.9943125,61.1332185 71.5443125,64.0927508 C71.8436875,65.7035411 72.0405625,67.3329605 72.3136875,68.9487185 C72.5099375,70.1111702 72.7724375,71.2630653 72.9743125,72.424896 C73.2099375,73.7773637 73.4155625,75.1354202 73.6230625,76.4934766 C73.6486875,76.6567911 73.6099375,76.8312831 73.6011875,77.0001863 L79.7836875,77.0001863 Z" id="Fill-1" fill="#FCE3E5" mask="url(#mask-2)"></path></g><path d="M69.7966768,70.7553853 C69.4336212,68.8533921 69.0568419,66.9539047 68.6838055,65.0531644 C68.272093,62.9594682 67.8684901,60.8626397 67.4411824,58.7714495 C67.0575413,56.8970213 66.6757716,55.0219667 66.2422259,53.1594417 C65.5947144,50.375991 64.9210031,47.5981787 64.2223396,44.8272577 C63.4712762,41.8470924 62.6628227,38.8819625 61.9092641,35.9024237 C61.1588246,32.9360409 60.3073284,30.0041145 59.2406188,27.1342096 C58.6860546,25.6444402 57.9880148,24.2386191 57.1839279,22.8697603 C55.9225906,20.7228134 54.5782871,18.6347555 53.132303,16.6080927 C52.1279741,15.1997657 50.9458603,13.9612148 49.5553951,12.9726293 C48.2478961,12.042933 46.7863169,11.3926468 45.1500717,11.1746317 C43.1744757,10.9108836 41.1926417,11.0029762 39.2245313,11.0837921 C37.4940914,11.1539579 35.777999,11.5436284 34.0519257,11.7679083 C32.1455722,12.0147414 30.2984804,12.4908662 28.5343549,13.2482805 C25.974252,14.3464999 23.6118958,15.7755008 21.4953195,17.6067019 C18.181658,20.4759802 15.6758262,23.9692327 13.6484542,27.828976 C12.387117,30.2321532 11.6054871,32.8157567 10.9423805,35.4344431 C10.3304261,37.8520294 9.72907638,40.2740011 9.20944535,42.7122612 C8.87071828,44.300388 8.67920961,45.9204653 8.43654878,47.5286394 C8.18640227,49.1844261 7.93812718,50.8414657 7.72041862,52.5016377 C7.6262238,53.2271015 7.61499528,53.9619625 7.55573364,54.6918117 C7.46715308,55.7605866 7.36921542,56.8293615 7.2750206,57.8975099 C7.27127776,57.9463753 7.26815872,57.9952407 7.26566349,58.0441062 C7.21575895,59.1686378 7.16710203,60.2937959 7.11594987,61.4183275 C7.07602624,62.2997848 7.00927892,63.1806157 7,64.0626995 C6.99305994,64.7963076 7.06479772,65.5305421 7.08101669,66.2647767 C7.10284993,67.2470973 7.07665005,68.2319239 7.12281175,69.2129916 C7.19392572,70.7240613 7.32617275,72.2332516 7.39853433,73.7443214 C7.46528166,75.1620456 7.4877387,76.5816493 7.53015756,78 L11.4963209,78 C11.628568,76.6468032 11.7614388,75.2942329 11.8936858,73.9416626 C11.8980525,73.8927971 11.9036667,73.8439317 11.906162,73.7950663 C11.9566903,72.7206531 12.0140805,71.6462399 12.0552518,70.5712002 C12.1113944,69.1033576 12.1344752,67.6348885 12.2118273,66.1682988 C12.2791984,64.9015562 12.3827503,63.6373196 12.5050165,62.3749624 C12.6254112,61.1414233 12.8044437,59.914149 12.9292051,58.6812363 C13.0495998,57.4934303 13.1026233,56.2987329 13.2417322,55.1134328 C13.3889506,53.8617257 13.6004211,52.61691 13.7888108,51.3702148 C13.9410196,50.362835 14.0844952,49.3542022 14.2604087,48.3505812 C14.5947691,46.4398172 14.8642536,44.5121383 15.3152659,42.6289394 C16.0039486,39.7546492 16.8105307,36.9079241 17.5921606,34.0561871 C18.1373677,32.070872 19.2670817,30.3862673 20.399291,28.7054215 C21.4522768,27.1436068 22.6081907,25.6601022 23.9131945,24.3075319 C25.3922403,22.7751618 27.0677852,21.4777217 28.9036485,20.3914054 C30.5398937,19.4241203 32.2060815,18.524495 34.0943446,18.1705338 C35.2820726,17.9481334 36.4847721,17.8046695 37.6806096,17.6254963 C39.3736212,17.3717719 41.078485,17.3116298 42.7870917,17.3341831 C43.9136867,17.3479656 45.0153295,17.5515716 46.0577106,17.9556512 C46.5854511,18.1605102 47.0888631,18.5138449 47.5074375,18.9035154 C49.4125433,20.6808392 50.733766,22.9167463 52.2196737,25.0273574 C54.0511704,27.6278759 54.9407188,30.6042823 55.7260915,33.6095069 C57.1134378,38.913913 58.4028463,44.2440048 59.7165834,49.5672054 C60.4539229,52.5567679 61.180034,55.5500893 61.8718357,58.5509285 C62.5031281,61.292405 63.0695447,64.048917 63.685242,66.7947788 C64.501805,70.4340011 65.3383299,74.0694645 66.1617548,77.7080603 C66.1829642,77.7995264 66.1561405,77.9022691 66.1511501,78 L71,78 C70.8334436,76.871083 70.68373,75.7390337 70.4959641,74.6138756 C70.2807508,73.3245798 70.0424566,72.0390428 69.7966768,70.7553853" id="Fill-4" fill="#FCE3E5"></path><g id="Group-8" transform="translate(14.000000, 22.000000)"><mask id="mask-4" fill="white"><use xlink:href="#path-3"></use></mask><g id="Clip-7"></g><path d="M43.8256628,39.3496444 C42.9298423,36.0724 42.0685731,32.7864444 41.1702397,29.5104444 C40.0941244,25.5829778 39.0054449,21.6586222 37.9016885,17.7386222 C37.2339064,15.3667111 36.4492782,13.0321333 35.367509,10.8089333 C35.0282782,10.1108 34.63565,9.43506667 34.2317141,8.77053333 C33.7027654,7.90191111 33.1267013,7.06128889 32.5914705,6.19577778 C31.3922269,4.25506667 29.6709449,2.87871111 27.6889577,1.81408889 C26.7761756,1.3244 25.8872654,0.749466667 24.8098936,0.604488889 C23.5270987,0.432755556 22.2700603,0.286533333 20.9520859,0.447688889 C19.37215,0.639955556 17.8330474,0.961022222 16.3071372,1.37044444 C14.2177269,1.93106667 12.5228295,3.1444 11.2670474,4.83248889 C9.51372692,7.18946667 7.85840641,9.62546667 6.27407308,12.0975556 C5.05284231,14.0021778 4.32789359,16.1556889 3.50557308,18.2525778 C2.63927821,20.4620889 1.99599615,22.7381778 1.58452179,25.0696444 C1.35773974,26.3514222 1.27104744,27.6574667 1.11148333,28.9516889 C0.978932051,30.0287556 0.826278205,31.1033333 0.693726923,32.1804 C0.625252564,32.7323111 0.563688462,33.2867111 0.529765385,33.8417333 C0.466316667,34.8845778 0.390932051,35.9286667 0.381508974,36.9733778 C0.359521795,39.2662667 0.357637179,41.5604 0.380880769,43.8532889 C0.394701282,45.1892 0.441188462,46.5263556 0.53290641,47.8597778 C0.645983333,49.4993333 0.806175641,51.1370222 0.97390641,52.7728444 C1.08447051,53.8511556 1.24466282,54.9244889 1.38223974,56.0003111 L4.93411154,56.0003111 C4.97180385,55.2026222 5.0270859,54.4049333 5.04467564,53.6066222 C5.06477821,52.6303556 5.03713718,51.6528444 5.05723974,50.6765778 C5.09618846,48.8273333 5.14707308,46.9780889 5.20612436,45.1288444 C5.23941923,44.1096444 5.27522692,43.0898222 5.35689359,42.0731111 C5.47625256,40.5797778 5.63770128,39.0883111 5.78030385,37.5962222 C5.8355859,37.0181778 5.87013718,36.4376444 5.94489359,35.8627111 C6.11639359,34.5479556 6.30422692,33.2350667 6.48954744,31.9221778 C6.65162436,30.7760444 6.79548333,29.6261778 6.98897051,28.4850222 C7.41426538,25.9830667 8.02990641,23.534 8.93200897,21.1484 C9.9522141,18.4523111 11.290291,15.9422667 12.9883295,13.6089333 C13.8175603,12.4702667 14.5167526,11.2301778 15.4163423,10.1518667 C16.6890859,8.62804444 18.2363551,7.51862222 20.3477526,7.29213333 C21.7342013,7.1428 23.1005474,7.08244444 24.4235474,7.47382222 C26.0034833,7.94111111 27.331509,8.83337778 28.2530859,10.2352444 C28.8925987,11.2071556 29.6188038,12.138 30.1383295,13.1702667 C30.7225603,14.3313333 31.2094192,15.5589778 31.5788038,16.8040444 C32.8528038,21.1036 34.0778038,25.4180889 35.2820731,29.7381778 C36.0654449,32.5493778 36.8017013,35.3742667 37.5203679,38.2028889 C38.3282397,41.3836889 39.0663808,44.5806667 39.8843038,47.7583556 C40.5803551,50.4662667 41.3480218,53.1561333 42.0817654,55.8553333 C42.0930731,55.8995111 42.0754833,55.9517778 42.0710859,56.0003111 L48.4335474,56.0003111 C48.1634192,55.0483111 47.8888936,54.0981778 47.6256756,53.1455556 C46.3567013,48.5473333 45.0833295,43.9509778 43.8256628,39.3496444" id="Fill-6" fill="#FCE3E5" mask="url(#mask-4)"></path></g><g id="Group-11" transform="translate(25.000000, 31.000000)"><mask id="mask-6" fill="white"><use xlink:href="#path-5"></use></mask><g id="Clip-10"></g><path d="M26.0912383,36.310132 C25.4791532,33.3911187 24.892366,30.467092 24.2944723,27.5449453 C23.7212596,24.7431187 23.1073234,21.9494387 22.5871745,19.138212 C22.079366,16.3946653 21.5419404,13.6586387 20.8083021,10.9683587 C20.0845362,8.31191867 19.2114511,5.71751867 17.6553234,3.41451867 C16.9235362,2.33038533 16.0936426,1.415452 14.860834,0.860852 C14.0981957,0.518065333 13.3806,0.154598667 12.5346638,0.253612 C11.989834,0.317532 11.4394511,0.400252 10.9137489,0.553158667 C10.0678128,0.799438667 9.21015319,1.04195867 8.4129617,1.409812 C7.2498766,1.94623867 6.66740851,3.07423867 6.08679149,4.14019867 C4.84040851,6.431292 3.99385532,8.88594533 3.43545106,11.4371053 C2.78757872,14.3943453 2.15945106,17.3572253 1.57328085,20.3276253 C1.30549362,21.683732 1.13704681,23.0605187 0.961195745,24.4335453 C0.788429787,25.7815053 0.685387234,27.139492 0.513238298,28.4887053 C0.31147234,30.066652 0.226323404,31.6489853 0.223855319,33.240092 C0.222004255,34.0948653 0.0911957447,34.9502653 0.0971543618,35.804412 C0.106004255,37.028292 0.170791489,38.2527987 0.23866383,39.4754253 C0.318876596,40.9374387 0.416365957,42.399452 0.528046809,43.8595853 C0.595919149,44.7369187 0.708834043,45.610492 0.793365957,46.4859453 C0.810025532,46.655772 0.78966383,46.828732 0.786578723,47.0004387 L3.69274894,47.0004387 C3.77419574,45.7126387 3.85564255,44.4248387 3.93770638,43.1376653 C3.94202553,43.0637187 3.95189787,42.9903987 3.95436596,42.9170787 C4.00434468,41.572252 4.03211064,40.2267987 4.10862128,38.883852 C4.16970638,37.816012 4.28447234,36.7506787 4.38257872,35.6853453 C4.47883404,34.644452 4.56645106,33.6016787 4.68862128,32.563292 C4.81634468,31.4797853 4.95764255,30.3969053 5.13349362,29.3209187 C5.34451489,28.0293587 5.57651489,26.740932 5.83751489,25.4600253 C6.26202553,23.3725987 6.67974894,21.283292 7.17028085,19.2127853 C7.75645106,16.7387053 8.38889787,14.274652 9.05466383,11.821252 C9.44894043,10.3667587 9.92713191,8.93231867 10.914366,7.74603867 C11.3456638,7.22903867 11.8232383,6.81418533 12.5463872,6.82734533 C12.9585574,6.83486533 13.2374511,7.00218533 13.5107915,7.339332 C14.3135362,8.32946533 14.6683234,9.522012 15.0298979,10.6976387 C15.8011745,13.1999187 16.3342809,15.7642387 16.8100043,18.3417187 C17.2499404,20.7255587 17.7484936,23.0981187 18.2131106,25.477572 C18.570983,27.3111987 18.9060255,29.1485853 19.2700681,30.9809587 C19.6581745,32.931772 20.0617064,34.879452 20.4726426,36.825252 C20.9835362,39.2460653 21.5073872,41.6637453 22.0287702,44.0814253 C22.1873447,44.817132 22.3625787,45.548452 22.5156,46.2847853 C22.5637277,46.5179053 22.5631106,46.7616787 22.5847064,47.0004387 L28.5432809,47.0004387 C28.1952809,45.5910653 27.8269191,44.1867053 27.504834,42.7723187 C27.0155362,40.6222253 26.5435149,38.4677453 26.0912383,36.310132" id="Fill-9" fill="#FCE3E5" mask="url(#mask-6)"></path></g></g></g></g></g></svg>