<svg xmlns="http://www.w3.org/2000/svg" xmlns:xlink="http://www.w3.org/1999/xlink" width="19px" height="40px" viewBox="0 0 19 40"><title>hico-online-course</title><defs><polygon id="path-1" points="0 -7.14285714e-05 24.8635714 -7.14285714e-05 24.8635714 37.8290714 0 37.8290714"></polygon></defs><g id="Base-Pages" stroke="none" stroke-width="1" fill="none" fill-rule="evenodd"><g id="Home1" transform="translate(-863.000000, -3597.000000)"><g id="Group-5" transform="translate(-1.000000, 3231.000000)"><g id="Group-9" transform="translate(857.000000, 363.000000)"><g id="hico-online-course" transform="translate(17.500000, 21.928571) rotate(-15.000000) translate(-17.500000, -21.928571) translate(5.000000, 3.000000)"><mask id="mask-2" fill="white"><use xlink:href="#path-1"></use></mask><g id="Clip-2"></g><path d="M5.47478571,25.7212143 C5.22621429,27.4312143 4.98192857,29.1105 4.73764286,30.7905 C4.79621429,30.8083571 4.85478571,30.8262143 4.91335714,30.8447857 C6.11335714,29.1062143 7.31335714,27.3683571 8.51264286,25.6290714 C8.4555,25.5855 8.39835714,25.5412143 8.34121429,25.4969286 C8.15335714,25.7169286 7.97192857,25.9419286 7.77764286,26.1555 C7.23835714,26.7497857 6.94978571,26.7840714 6.29407143,26.3290714 C6.02764286,26.1433571 5.77264286,25.9426429 5.47478571,25.7212143 L5.47478571,25.7212143 Z M24.8640714,4.69764286 C24.6976429,5.08835714 24.5412143,5.48407143 24.3647857,5.86907143 C23.3133571,8.1555 22.3240714,10.4740714 21.1890714,12.7183571 C19.0940714,16.8605 16.4926429,20.6862143 13.6476429,24.3419286 C12.1505,26.2676429 10.5640714,28.1226429 9.02192857,30.0133571 C8.11121429,31.1312143 7.21764286,32.2633571 6.29764286,33.3740714 C6.03264286,33.6933571 5.7205,33.9805 5.39907143,34.2440714 C4.97192857,34.5940714 4.50907143,34.6955 4.01835714,34.2319286 C3.28335714,35.4119286 3.25121429,37.0240714 1.83692857,37.8290714 C0.5805,36.7355 -0.248071429,35.5826429 0.0669285714,33.8933571 C0.127642857,33.5669286 0.0847857143,33.2233571 0.119785714,32.8905 C0.241928571,31.7362143 0.333357143,30.5769286 0.517642857,29.4326429 C0.793357143,27.7183571 1.13335714,26.0147857 1.45335714,24.3076429 C1.90407143,21.8969286 2.3105,19.4755 2.82692857,17.0769286 C3.79764286,12.5697857 5.08478571,8.14478571 6.49121429,3.7555 C6.70978571,3.07478571 7.02978571,2.42764286 7.29764286,1.76264286 C7.62192857,0.957642857 8.1605,0.433357143 9.05621429,0.306214286 C9.31264286,0.2705 9.54978571,0.106214286 9.79621429,-0.000214285714 L11.1355,-0.000214285714 C11.3076429,0.124785714 11.4640714,0.288357143 11.6555,0.367642857 C12.3269286,0.647642857 12.7126429,1.16978571 12.8783571,1.84335714 C13.0026429,2.34978571 13.1055,2.87907143 13.0997857,3.3955 C13.0862143,4.64407143 13.0626429,5.89764286 12.9326429,7.13764286 C12.7840714,8.5605 12.5119286,9.96907143 12.3026429,11.3855 C12.2305,11.8683571 12.1862143,12.3562143 12.1290714,12.8419286 C12.8833571,12.1490714 13.4726429,11.4205 14.0719286,10.6990714 C15.0833571,9.48192857 16.0983571,8.26621429 17.1176429,7.0555 C17.9933571,6.0155 18.9119286,5.0105 19.7497857,3.9405 C20.6640714,2.77264286 21.9012143,2.3455 23.2933571,2.22335714 C23.4947857,2.20478571 23.7183571,2.29264286 23.9119286,2.37621429 C24.2376429,2.51621429 24.5476429,2.69192857 24.8640714,2.85192857 L24.8640714,4.69764286 Z" id="Fill-1" fill="#F9C2C5" mask="url(#mask-2)"></path></g></g></g></g></g></svg>