<svg xmlns="http://www.w3.org/2000/svg" xmlns:xlink="http://www.w3.org/1999/xlink" width="10px" height="11px" viewBox="0 0 10 11"><title>7E8561C3-3FB1-4694-97C3-26D9CB090D8C</title><defs><polygon id="path-1" points="0 10.8127964 9.9985906 10.8127964 9.9985906 0 0 0"></polygon></defs><g id="Base-Pages" stroke="none" stroke-width="1" fill="none" fill-rule="evenodd"><g id="Home1" transform="translate(-1433.000000, -8516.000000)"><g id="footer" transform="translate(0.000000, 8079.000000)"><g id="Group-2" transform="translate(1046.000000, 432.000000)"><g id="Group" transform="translate(251.000000, 0.000000)"><g id="uico-5x5" transform="translate(136.000000, 5.000000)"><path d="M5.65919016,8.1733915 L7.33760179,8.1733915 C7.04480537,6.59717226 5.8904877,5.31992394 4.38281432,4.85171365 L4.38281432,3.99929754 L7.33207606,3.99929754 L7.33207606,2.66621029 L4.38695302,2.66621029 L2.66621477,2.66621029 L2.66621477,6.29285459 L3.13932438,6.29285459 C4.32370917,6.30596421 5.32536465,7.09426398 5.65919016,8.1733915" id="Fill-1" fill="#495056"></path><mask id="mask-2" fill="white"><use xlink:href="#path-1"></use></mask><g id="Clip-4"></g><path d="M1.33440716,9.4796868 L8.66519016,9.4796868 L8.66519016,1.33310962 L1.33440716,1.33310962 L1.33440716,9.4796868 Z M9.9985906,0 L0.00033557047,0 L0.00033557047,1.33310962 L0.00131991051,1.33310962 L0.00131991051,9.4796868 L0,9.4796868 L0,10.8127964 L9.9982774,10.8127964 L9.9982774,9.57246085 L9.9982774,9.4796868 L9.9982774,1.33310962 L9.9985906,1.33310962 L9.9985906,0 Z" id="Fill-3" fill="#495056" mask="url(#mask-2)"></path></g></g></g></g></g></g></svg>