<svg xmlns="http://www.w3.org/2000/svg" xmlns:xlink="http://www.w3.org/1999/xlink" width="172px" height="36px" viewBox="0 0 172 36"><title>uico-kmlogo-footer@3x</title><defs><polygon id="path-1" points="1.2139401e-05 0.0837052617 7.52812008 0.0837052617 7.52812008 15.620268 1.2139401e-05 15.620268"></polygon><polygon id="path-3" points="0.48188777 0.217633681 6.33569989 0.217633681 6.33569989 15.4861808 0.48188777 15.4861808"></polygon></defs><g id="Symbols" stroke="none" stroke-width="1" fill="none" fill-rule="evenodd"><g id="footer" transform="translate(-270.000000, -51.000000)"><g id="uico-kmlogo-footer" transform="translate(270.000000, 51.000000)"><g id="Group-3"><mask id="mask-2" fill="white"><use xlink:href="#path-1"></use></mask><g id="Clip-2"></g><path d="M7.11653588,15.4828797 C6.75365588,15.678585 6.31909589,15.5147113 6.1555759,15.1327324 L2.80397595,8.03723776 L1.54453597,9.92296404 L1.59101597,14.8438903 C1.59549597,15.3007324 1.30205598,15.6155113 0.868615985,15.620268 C0.481095992,15.6243534 0.135575998,15.3160587 0.131655998,14.8598061 L1.2139401e-05,0.935848405 C-0.00442399992,0.480185255 0.334935994,0.164227366 0.722455988,0.16010105 C1.15589598,0.155974734 1.45493598,0.464858939 1.45941598,0.92052209 L1.51933597,7.28212198 L6.0620559,0.416522098 C6.30957589,0.0534063149 6.74245589,-0.0226357891 7.08685588,0.237322101 C7.43125587,0.497869465 7.50405587,0.953532615 7.25653588,1.31605892 L3.77109594,6.58654305 L7.44917587,14.4471745 C7.63509587,14.8291534 7.47997587,15.286585 7.11653588,15.4828797" id="Fill-1" fill="#100040" mask="url(#mask-2)"></path></g><path d="M52,1.740944 C52.0047955,2.18547933 51.6871034,2.49274858 51.2172345,2.49734326 L48.7981673,2.51974233 L48.9315494,15.2435609 C48.9363997,15.6880963 48.6181014,15.9953655 48.1488387,16 C47.7292912,16.0039805 47.3558212,15.703029 47.3515772,15.2584937 L47.2175888,2.53467504 L44.7979153,2.55764844 C44.3783678,2.56166878 44.0042915,2.26071722 44,1.81618189 C43.9951972,1.3722209 44.3626044,1.06437732 44.7821519,1.06093131 L51.2020774,1 C51.6713401,0.995457112 51.995095,1.29698301 52,1.740944" id="Fill-4" fill="#100040"></path><path d="M72.1388429,1 C72.5682925,0.995492931 72.8651343,1.29407796 72.8695731,1.73511768 L73,15.1942368 C73.0038455,15.6352765 72.713107,15.9401295 72.2836573,15.9446881 C71.8997049,15.9486768 71.5579207,15.6500918 71.553482,15.2090521 L71.4935588,8.99005013 L67.5164335,9.03050726 L67.5763567,15.2495092 C67.5807954,15.6905489 67.2900569,15.995402 66.8611621,16 C66.4766549,16.0039492 66.1348707,15.7053642 66.1304319,15.2643245 L66,1.80520539 C65.9956047,1.36473549 66.3318405,1.05931263 66.7163477,1.0553239 C67.1452425,1.05133517 67.4420843,1.3499202 67.4459682,1.7903901 L67.5020075,7.54555958 L71.4791328,7.50510244 L71.4230935,1.74993297 C71.4186548,1.30889325 71.7548905,1.00404021 72.1388429,1" id="Fill-6" fill="#100040"></path><path d="M86.7052993,1.04681498 L91.1553849,1 C91.5771215,0.995433608 91.8693871,1.29794863 91.8737574,1.74479334 C91.8775815,2.19163805 91.5913251,2.50050358 91.1690422,2.50454481 L87.4313199,2.54437981 L87.4783009,7.52837255 L90.7707961,7.49373342 C91.1936253,7.48911487 91.4858909,7.7916299 91.489715,8.23905193 C91.4940853,8.68531932 91.2078289,8.99418485 90.7849997,8.99822608 L87.4925045,9.0328652 L87.5438558,14.48795 L91.2815781,14.4486924 C91.703861,14.4440738 91.9966729,14.7465888 92,15.1934336 C92.004321,15.6402783 91.7180645,15.9485665 91.2957817,15.953185 L86.8462424,16 C86.4234132,16.0045664 86.1311476,15.7020514 86.1267773,15.2546293 L86,1.80656645 C85.9962137,1.35972174 86.2830165,1.05143353 86.7052993,1.04681498" id="Fill-8" fill="#100040"></path><path d="M111.811282,9.15088935 L113.943372,14.9314652 C114.105204,15.3037014 113.906239,15.7270627 113.523826,15.8947988 C113.164136,16.0625348 112.756229,15.8557369 112.593843,15.4599487 L110.369198,9.42317325 L108.518098,9.44212973 L108.574075,15.2439598 C108.578509,15.6885753 108.287542,15.9959 107.859129,15.9999609 C107.475608,16.0039421 107.133653,15.7035107 107.129774,15.2588952 L107.000043,1.78371403 C106.995652,1.33967298 107.33151,1.03177388 107.715586,1.0277528 L110.423512,1.00017975 C112.319503,0.980648838 113.86966,2.5551851 113.888504,4.52033962 L113.901251,5.83063412 C113.915661,7.32762116 113.069919,8.59942827 111.811282,9.15088935 M112.45695,5.84499508 L112.444203,4.53527503 C112.433118,3.41224752 111.544147,2.48567803 110.437921,2.4971668 L108.452146,2.51784659 L108.504243,7.94456824 L110.490018,7.92446289 C111.596244,7.91297412 112.468034,6.99157457 112.45695,5.84499508" id="Fill-10" fill="#100040"></path><path d="M128.16548,15.2616135 L128.000055,1.75270709 C127.994424,1.31003589 128.421009,1.00405516 128.908836,1 C129.452978,0.995476258 129.829584,1.2951658 129.834512,1.73783699 L129.999936,15.2467434 C130.005568,15.6894146 129.636706,15.9953954 129.092563,16 C128.604736,16.0034023 128.171112,15.7042847 128.16548,15.2616135" id="Fill-12" fill="#100040"></path><path d="M149.582054,15.5801347 C148.929902,14.2522244 148.302877,12.924886 147.674138,11.6438701 C146.627382,9.47758058 145.348776,6.7994566 144.488757,5.00603427 L144.488757,15.2541619 C144.488757,15.6967987 144.186095,15.9993243 143.744093,15.9993243 C143.302663,15.9993243 143,15.6967987 143,15.2541619 L143,1.74516241 C143,1.39631431 143.232993,1.09321679 143.58077,1.02344717 C143.930259,0.953105666 144.255764,1.11666395 144.419088,1.4191896 C145.046684,2.746528 145.674281,4.07443829 146.303019,5.35545424 C147.349204,7.52117184 148.651224,10.1998677 149.511814,11.99329 L149.511814,1.74516241 C149.511814,1.30309752 149.813905,1 150.256478,1 C150.697337,1 151,1.30309752 151,1.74516241 L151,15.2541619 C151,15.6035819 150.767578,15.9061075 150.41923,15.9758771 C150.069741,16.0690939 149.744236,15.8826603 149.582054,15.5801347" id="Fill-14" fill="#100040"></path><g id="Group-18" transform="translate(164.000000, 0.000000)"><mask id="mask-4" fill="white"><use xlink:href="#path-3"></use></mask><g id="Clip-17"></g><path d="M1.19184331,0.217633681 L5.62688768,0.217633681 C6.04774323,0.217633681 6.33575434,0.530054728 6.33575434,0.985717878 C6.33575434,1.4419705 6.04774323,1.75439155 5.62688768,1.75439155 L1.90179886,1.75439155 L1.90179886,6.84331778 L5.18262102,6.84331778 C5.60402102,6.84331778 5.89257657,7.15573883 5.89257657,7.61199145 C5.89257657,8.0676546 5.60402102,8.38007565 5.18262102,8.38007565 L1.90179886,8.38007565 L1.90179886,13.9500124 L5.62688768,13.9500124 C6.04774323,13.9500124 6.33575434,14.261844 6.33575434,14.7180966 C6.33575434,15.1743492 6.04774323,15.4861808 5.62688768,15.4861808 L1.19184331,15.4861808 C0.770987765,15.4861808 0.48188777,15.1743492 0.48188777,14.7180966 L0.48188777,0.985717878 C0.48188777,0.530054728 0.770987765,0.217633681 1.19184331,0.217633681" id="Fill-16" fill="#100040" mask="url(#mask-4)"></path></g><path d="M0.133281486,34.2648601 L0,20.8163273 C-0.0033644052,20.4684271 0.224567745,20.1643704 0.569867942,20.0914879 C0.915735135,20.018036 1.2406235,20.1780359 1.40561916,20.4769681 C1.80648491,21.3310601 2.20735065,22.1618069 2.6076494,22.9692086 C3.26819904,24.3551152 4.02343691,25.9710573 4.49404309,26.9168218 C4.9238256,25.9613776 5.64617774,24.3078554 6.30219142,22.9333367 C6.6866143,22.1168247 7.07103718,21.2786758 7.45489306,20.4171816 C7.61365177,20.1136943 7.93513816,19.9480004 8.28270634,20.0146196 C8.62914053,20.0806694 8.86330963,20.3796016 8.8667116,20.7275017 L9,34.176604 C9.00449148,34.6173154 8.66145927,34.9219416 8.26909845,34.9259273 C7.82967702,34.9304825 7.52690148,34.6326891 7.52236551,34.1908388 L7.42200733,24.0578912 C6.87939273,25.2462179 6.33734513,26.4573203 5.90756262,27.3899888 C5.65865164,27.9252198 5.41030765,28.4615896 5.18407649,28.9734754 C5.02588477,29.2530482 4.81893145,29.3942581 4.51899089,29.3976744 C4.19580351,29.4005214 3.9633354,29.2644361 3.84540036,28.9865715 C3.60896328,28.4792408 3.34984638,27.9479956 3.09072948,27.4178892 C2.64280312,26.4949004 2.0536949,25.294047 1.51051331,24.1176776 L1.61087149,34.2506253 C1.61540746,34.6907673 1.27237524,34.9959629 0.879447429,35 C0.440592991,35.0045038 0.137817449,34.7055716 0.133281486,34.2648601" id="Fill-19" fill="#100040"></path><path d="M50.4821226,31.4848761 C50.5464654,30.8556507 50.3047453,30.253286 49.8514478,29.8149428 L46.036097,26.0355897 C45.2970249,25.3217818 44.932416,24.3239366 45.017047,23.3226624 C45.0773321,22.297385 45.5880164,21.3841223 46.4070822,20.7480389 C47.2273072,20.1119554 48.2637471,19.8684949 49.2810581,20.0679496 C50.298369,20.2674044 51.1301874,20.8411939 51.6820279,21.743598 C51.8982427,22.0910722 51.7846284,22.5579906 51.4095856,22.7705899 C51.0577293,22.9831893 50.5835639,22.8488859 50.391695,22.5008403 C50.0792559,21.969342 49.6039311,21.6475854 48.9889072,21.5372853 C48.3738833,21.4264136 47.8087106,21.5487153 47.3165755,21.9259077 C46.8238608,22.2802399 46.5693882,22.7717329 46.5288117,23.4003869 C46.4876555,24.0056091 46.6818431,24.5393934 47.1113744,24.9771652 L50.9267252,28.7810928 C51.6663769,29.5189039 52.0541724,30.5390378 51.9938873,31.5871753 C51.9104156,32.6353128 51.400311,33.5942958 50.557479,34.2309507 C49.7134877,34.8676057 48.630095,35.1344978 47.5895975,34.9350431 C46.5485203,34.7355884 45.6448235,34.1160785 45.0929831,33.2136744 C44.9005345,32.8433401 45.0141487,32.3998533 45.366005,32.187254 C45.7178612,31.9740832 46.191447,32.0860979 46.4076618,32.4558607 C46.7201009,32.988502 47.2429582,33.3554073 47.8817483,33.466279 C48.5199588,33.5754362 49.1088978,33.4531344 49.624799,33.0525104 C50.1633072,32.6518864 50.4415461,32.1375332 50.4821226,31.4848761" id="Fill-21" fill="#100040"></path><path d="M67.1273234,34.2569573 L67,20.7562919 C66.9956794,20.3119866 67.2819095,20.0035052 67.7046998,20 C68.0832446,19.9954479 68.4191827,20.2964475 68.4235526,20.7419038 L68.5437256,33.4920846 L72.2811044,33.4535245 C72.6596492,33.4489203 72.9961335,33.7504954 73,34.1959517 C73.0043271,34.6408325 72.6738515,34.9493139 72.2953067,34.9533426 L67.8467224,35 C67.4233859,35.0039888 67.1316934,34.7024137 67.1273234,34.2569573" id="Fill-23" fill="#100040"></path><path d="M86.7052993,20.0468149 L91.1553849,20 C91.5771215,19.9954335 91.8693871,20.2985259 91.8737574,20.7447932 C91.8775815,21.191638 91.5913251,21.5010808 91.1690422,21.5045447 L87.4313199,21.5443797 L87.4783009,26.5289498 L90.7707961,26.4937334 C91.1936253,26.4891148 91.4858909,26.7922072 91.489715,27.2384746 C91.4940853,27.6853193 91.2078289,27.9947621 90.7849997,27.998226 L87.4925045,28.0328652 L87.5438558,33.48795 L91.2815781,33.4486924 C91.703861,33.4440738 91.9966729,33.7465888 92,34.1928562 C92.004321,34.6402783 91.7180645,34.9485665 91.2957817,34.953185 L86.8462424,35 C86.4234132,35.0045664 86.1311476,34.7020514 86.1267773,34.2546293 L86,20.8065664 C85.9962137,20.3597216 86.2830165,20.0514334 86.7052993,20.0468149" id="Fill-25" fill="#100040"></path><path d="M113.607775,34.5244394 C112.954076,33.2089586 112.323965,31.8934779 111.693853,30.6241244 C110.643105,28.4772143 109.359856,25.8229045 108.495559,24.0455818 L108.595523,34.2505233 C108.600016,34.6907253 108.3063,34.9953929 107.871624,35 C107.436387,35.0045044 107.137056,34.7055315 107.132001,34.2647601 L107,20.8138272 C106.997218,20.4658797 107.222418,20.162351 107.564431,20.0894586 C107.907567,20.0159967 108.2288,20.1754489 108.392225,20.4755607 C109.022336,21.7910415 109.65301,23.1065222 110.283122,24.3758757 C111.333308,26.5222163 112.640144,29.1765261 113.50388,30.9532793 L113.403916,20.7500463 C113.399423,20.3087054 113.6937,20.0040378 114.128376,20 C114.563052,19.9954957 114.862944,20.2938991 114.867437,20.7346706 L115,34.1856034 C115.002782,34.5341204 114.777582,34.8376491 114.435008,34.9105415 C114.092995,35.0067823 113.770638,34.8245512 113.607775,34.5244394" id="Fill-27" fill="#100040"></path><path d="M31.9660184,14.9833587 L28.087438,1.54979381 C27.9903442,1.2030623 27.7076807,0.996620187 27.3560748,1 C27.0056179,1.00346357 26.726976,1.21503823 26.6367765,1.56462115 L23.0282201,15.0717524 C22.9150398,15.4675282 23.1528908,15.8598823 23.5521818,15.9722278 C23.9980089,16.0840031 24.3697229,15.8479063 24.4829033,15.4521306 C24.5506965,15.2194555 27.0217045,5.83717456 27.391695,4.53008801 L30.3010612,14.628073 C30.3740252,14.9063706 30.4469892,15.1612867 30.5193786,15.392251 C30.6400277,15.7863159 31.0404677,16.0144287 31.4368861,15.8946695 C31.8804151,15.7737697 32.0866675,15.3768533 31.9660184,14.9833587" id="Fill-29" fill="#100040"></path><path d="M31.9660184,33.9831343 L28.087438,20.5497728 C27.9903442,20.2036168 27.7071061,19.9971778 27.3560748,20 C27.0056179,20.0034508 26.726976,20.2155925 26.6367765,20.5651702 L23.0282201,34.0715266 C22.9150398,34.4678667 23.1528908,34.8596446 23.5521818,34.9719884 C23.9980089,35.0843323 24.3697229,34.8482391 24.4829033,34.451899 C24.5506965,34.2192275 27.0217045,24.8370886 27.391695,23.5305921 C27.391695,23.5305921 30.4469892,34.1610596 30.5188041,34.3925906 C30.6400277,34.7860793 31.0404677,35.0147589 31.4368861,34.8950015 C31.8804151,34.7741035 32.0866675,34.3766229 31.9660184,33.9831343" id="Fill-31" fill="#100040"></path></g></g></g></svg>