<?xml version="1.0" encoding="UTF-8"?> <svg xmlns="http://www.w3.org/2000/svg" xmlns:xlink="http://www.w3.org/1999/xlink" width="20px" height="20px" viewBox="0 0 20 20" version="1.1"><title>2BB02486-523B-4BF7-8C08-CBC0DB7D517C</title><defs><path d="M16.5,13.3333333 C16.9602373,13.3333333 17.3333333,13.7064294 17.3333333,14.1666667 L17.3333333,14.1666667 L17.3333333,16.6666667 C17.3333333,18.0473785 16.2140452,19.1666667 14.8333333,19.1666667 L14.8333333,19.1666667 L3.16666667,19.1666667 C1.78595479,19.1666667 0.666666667,18.0473785 0.666666667,16.6666667 L0.666666667,16.6666667 L0.666666667,14.1666667 C0.666666667,13.7064294 1.03976271,13.3333333 1.5,13.3333333 C1.96023729,13.3333333 2.33333333,13.7064294 2.33333333,14.1666667 L2.33333333,14.1666667 L2.33333333,16.6666667 C2.33333333,17.126904 2.70642938,17.5 3.16666667,17.5 L3.16666667,17.5 L14.8333333,17.5 C15.2935706,17.5 15.6666667,17.126904 15.6666667,16.6666667 L15.6666667,16.6666667 L15.6666667,14.1666667 C15.6666667,13.7064294 16.0397627,13.3333333 16.5,13.3333333 Z M9,0.833333333 C9.46023729,0.833333333 9.83333333,1.20642938 9.83333333,1.66666667 L9.83333333,1.66666667 L9.83266667,11.3213333 L11.7440777,9.41074435 C12.0423948,9.11242718 12.5106167,9.08756742 12.8372513,9.33616506 L12.922589,9.41074435 C13.2480259,9.73618126 13.2480259,10.2638187 12.922589,10.5892557 L12.922589,10.5892557 L9.58925565,13.922589 C9.58446981,13.9273748 9.57964025,13.9320903 9.57476824,13.9367354 C9.55756834,13.9531417 9.53922927,13.9691754 9.5202088,13.984393 C9.51152881,13.9913858 9.50343945,13.9976103 9.49526442,14.003666 C9.47237401,14.0205663 9.44793168,14.036781 9.42263245,14.0516974 C9.41745793,14.0548288 9.41208456,14.0579155 9.4066847,14.0609374 C9.38243766,14.074429 9.35788858,14.0866225 9.33269103,14.0976064 C9.3252234,14.1008705 9.317454,14.1041127 9.30964696,14.1072321 C9.29116868,14.1146333 9.27263957,14.1212953 9.25381977,14.1273066 C9.08398164,14.1814152 8.90012445,14.1797632 8.73106258,14.1222745 C8.71792627,14.1178256 8.70573731,14.1133328 8.69368604,14.1085671 C8.6796843,14.1030442 8.66520173,14.0968635 8.65086821,14.090254 C8.63176185,14.0813811 8.61357986,14.072131 8.59579734,14.062249 C8.58669275,14.0572743 8.57722046,14.0517762 8.56783641,14.0460761 C8.54527144,14.0322541 8.52395425,14.0178793 8.50336741,14.0025772 C8.4713593,13.9788748 8.44022233,13.952067 8.41074435,13.922589 L8.48529351,13.9887574 C8.46282647,13.9710895 8.44129022,13.9522912 8.42077044,13.9324483 L8.41074435,13.922589 L5.07741102,10.5892557 C4.75197411,10.2638187 4.75197411,9.73618126 5.07741102,9.41074435 C5.40284793,9.08530744 5.93048541,9.08530744 6.25592232,9.41074435 L6.25592232,9.41074435 L8.16566667,11.3203333 L8.16666667,1.66666667 C8.16666667,1.24183224 8.48457099,0.891248353 8.89546844,0.839826183 Z" id="path-1"></path></defs><g id="Base-Pages" stroke="none" stroke-width="1" fill="none" fill-rule="evenodd"><g id="Podcast" transform="translate(-1322.000000, -2630.000000)"><rect fill="#FFFFFF" x="0" y="0" width="1600" height="2659"></rect><g id="footer" transform="translate(0.000000, 2188.000000)"><rect id="Rectangle" fill="#F9C3BC" x="800" y="433" width="800" height="38"></rect><g id="Group-8" transform="translate(1059.000000, 442.000000)"><g id="z-icodownload" transform="translate(264.000000, 0.000000)"><mask id="mask-2" fill="white"><use xlink:href="#path-1"></use></mask><use id="z-icoCombined-Shape" fill="#000000" fill-rule="nonzero" xlink:href="#path-1"></use><g id="z-ico🎨Color" mask="url(#mask-2)" fill="#100040"><g transform="translate(-1.000000, 0.000000)" id="z-icoRectangle"><rect x="0" y="0" width="20" height="20"></rect></g></g></g></g></g></g></g></svg> 