<?xml version="1.0" encoding="UTF-8"?> <svg xmlns="http://www.w3.org/2000/svg" xmlns:xlink="http://www.w3.org/1999/xlink" width="19px" height="19px" viewBox="0 0 19 19" version="1.1"><title>A8CB444D-A615-4E3A-8A94-A22D9CAE4F6B</title><defs><path d="M11.875,0.583333333 C12.3122254,0.583333333 12.6666667,0.937774573 12.6666667,1.375 C12.6666667,1.81222543 12.3122254,2.16666667 11.875,2.16666667 L11.875,2.16666667 L3.16666667,2.16666667 C2.72944124,2.16666667 2.375,2.52110791 2.375,2.95833333 L2.375,2.95833333 L2.375,14.0416667 C2.375,14.4788921 2.72944124,14.8333333 3.16666667,14.8333333 L3.16666667,14.8333333 L14.25,14.8333333 C14.6872254,14.8333333 15.0416667,14.4788921 15.0416667,14.0416667 L15.0416667,14.0416667 L15.0416667,8.5 C15.0416667,8.06277457 15.3961079,7.70833333 15.8333333,7.70833333 C16.2705588,7.70833333 16.625,8.06277457 16.625,8.5 L16.625,8.5 L16.625,14.0416667 C16.625,15.3533429 15.5616763,16.4166667 14.25,16.4166667 L14.25,16.4166667 L3.16666667,16.4166667 C1.85499039,16.4166667 0.791666667,15.3533429 0.791666667,14.0416667 L0.791666667,14.0416667 L0.791666667,2.95833333 C0.791666667,1.64665705 1.85499039,0.583333333 3.16666667,0.583333333 L3.16666667,0.583333333 Z M16.8568738,0.815207132 C17.1660389,0.506042067 17.6672945,0.506042067 17.9764595,0.815207132 C18.2856246,1.1243722 18.2856246,1.6256278 17.9764595,1.93479287 L17.9764595,1.93479287 L9.2681262,10.6431262 C8.95896114,10.9522913 8.45770553,10.9522913 8.14854046,10.6431262 L8.14854046,10.6431262 L5.77354046,8.2681262 C5.4643754,7.95896114 5.4643754,7.45770553 5.77354046,7.14854046 C6.08270553,6.8393754 6.58396114,6.8393754 6.8931262,7.14854046 L6.8931262,7.14854046 L8.70833333,8.9637476 Z" id="path-1"></path></defs><g id="Base-Pages" stroke="none" stroke-width="1" fill="none" fill-rule="evenodd"><g id="Podcast" transform="translate(-485.000000, -2631.000000)"><rect fill="#FFFFFF" x="0" y="0" width="1600" height="2659"></rect><g id="footer" transform="translate(0.000000, 2188.000000)"><rect id="Rectangle" fill="#FBDBD7" x="0" y="433" width="800" height="38"></rect><g id="Group-7" transform="translate(296.000000, 443.000000)"><g id="z-icocheck-square" transform="translate(189.000000, 1.000000)"><mask id="mask-2" fill="white"><use xlink:href="#path-1"></use></mask><use id="z-icoCombined-Shape" fill="#000000" fill-rule="nonzero" xlink:href="#path-1"></use><g id="z-icoCOLOR/-black" mask="url(#mask-2)" fill="#100040"><g transform="translate(0.000000, -1.000000)" id="z-icoRectangle"><rect x="0" y="0" width="19" height="19"></rect></g></g></g></g></g></g></g></svg> 